<?xml version="1.0" encoding="UTF-8" standalone="no"?>
<!DOCTYPE svg PUBLIC "-//W3C//DTD SVG 1.1//EN" "http://www.w3.org/Graphics/SVG/1.1/DTD/svg11.dtd">
<svg xmlns="http://www.w3.org/2000/svg" xmlns:xlink="http://www.w3.org/1999/xlink" version="1.1" width="1574.8027pt" height="2362.2054pt" viewBox="0 0 1574.8027 2362.2054">
<g enable-background="new">
<g id="Layer-1" data-name="Layer 1">
<clipPath id="cp0">
<path transform="matrix(2.7777777,0,0,-2.7777777,0,2362.2054)" d="M 0 850.394 L 566.929 850.394 L 566.929 0 L 0 0 Z "/>
</clipPath>
<g clip-path="url(#cp0)">
<path transform="matrix(2.7777777,0,0,-2.7777777,943.73916,461.88557)" d="M 0 0 C -7.648 0 -13.82 -6.162 -13.82 -13.82 L -13.82 -27.812 L .008 -27.804 C 7.661 -27.804 13.992 -21.486 13.999 -13.82 C 13.992 -6.167 7.661 0 0 0 " fill="#231f20"/>
<path transform="matrix(2.7777777,0,0,-2.7777777,592.1578,500.7636)" d="M 0 0 C 0 -7.653 6.335 -13.822 13.992 -13.822 C 21.648 -13.822 27.812 -7.658 27.812 0 L 27.812 13.991 L 13.992 13.985 C 6.335 13.985 0 7.667 0 0 " fill="#231f20"/>
<path transform="matrix(2.7777777,0,0,-2.7777777,943.7608,617.7897)" d="M 0 0 L -56.621 0 C -64.446 .002 -70.778 6.328 -70.786 14.157 C -70.778 21.986 -64.446 28.308 -56.627 28.314 L -42.134 28.308 L -42.134 42.306 C -42.134 65.62 -23.315 84.433 0 84.437 C 23.316 84.442 42.308 65.62 42.308 42.298 C 42.301 18.99 23.321 0 0 0 M -112.585 0 C -135.909 -.005 -154.893 18.817 -154.893 42.129 C -154.886 65.445 -135.909 84.437 -112.593 84.437 L -55.965 84.437 C -48.14 84.433 -41.813 78.108 -41.808 70.278 C -41.813 62.452 -48.14 56.12 -55.958 56.115 L -70.452 56.12 L -70.452 42.129 C -70.446 18.817 -89.264 0 -112.585 0 M .399 98.913 L -112.983 98.913 C -144.292 98.913 -169.675 73.531 -169.675 42.219 C -169.675 10.907 -144.292 -14.476 -112.983 -14.476 L .399 -14.476 C 31.714 -14.476 57.097 10.907 57.097 42.219 C 57.097 73.531 31.714 98.913 .399 98.913 " fill="#231f20"/>
<path transform="matrix(2.7777777,0,0,-2.7777777,528.63778,758.7982)" d="M 0 0 L -4.728 0 L -4.728 -4.667 C -4.728 -7.254 -2.588 -9.398 0 -9.398 C 2.588 -9.398 4.674 -7.254 4.674 -4.667 C 4.674 -2.075 2.588 0 0 0 M 0 -18.964 C -7.88 -18.964 -14.301 -12.555 -14.301 -4.667 L -14.301 14.479 C -14.301 17.115 -12.164 19.261 -9.518 19.261 C -6.875 19.261 -4.728 17.115 -4.728 14.479 L -4.728 9.574 L 0 9.574 C 7.877 9.574 14.239 3.214 14.239 -4.667 C 14.239 -12.555 7.877 -18.964 0 -18.964 " fill="#231f20"/>
<path transform="matrix(2.7777777,0,0,-2.7777777,628.8058,771.7636)" d="M 0 0 C 0 2.593 -2.133 4.667 -4.725 4.667 C -7.311 4.667 -9.4 2.593 -9.4 0 C -9.4 -2.587 -7.311 -4.731 -4.725 -4.731 L 0 -4.731 Z M 4.783 -14.297 L -4.725 -14.297 C -12.555 -14.297 -18.967 -7.887 -18.967 0 C -18.967 7.882 -12.555 14.241 -4.725 14.241 C 3.155 14.241 9.565 7.882 9.565 0 L 9.565 -9.514 C 9.565 -12.153 7.439 -14.297 4.783 -14.297 " fill="#231f20"/>
<path transform="matrix(2.7777777,0,0,-2.7777777,702.9594,838.07357)" d="M 0 0 L -4.617 0 C -7.263 0 -9.399 2.147 -9.399 4.783 C -9.399 7.432 -7.263 9.575 -4.617 9.575 L 0 9.575 C 2.588 9.575 4.673 11.652 4.673 14.253 L 4.673 23.872 C 4.673 26.464 2.588 28.6 0 28.6 C -2.582 28.6 -4.726 26.464 -4.726 23.872 C -4.726 21.059 -2.307 20.387 -2.307 17.561 C -2.307 14.925 -4.443 12.778 -7.089 12.778 C -11.821 12.778 -14.291 19.986 -14.291 23.872 C -14.291 31.753 -7.881 38.174 0 38.174 C 7.887 38.174 14.307 31.753 14.307 23.872 L 14.307 14.253 C 14.307 6.363 7.887 0 0 0 " fill="#231f20"/>
<path transform="matrix(2.7777777,0,0,-2.7777777,803.24697,771.7636)" d="M 0 0 C 0 2.593 -2.146 4.667 -4.731 4.667 C -7.323 4.667 -9.408 2.593 -9.408 0 C -9.408 -2.587 -7.323 -4.731 -4.731 -4.731 L 0 -4.731 Z M 4.781 -14.297 L -4.731 -14.297 C -12.564 -14.297 -18.974 -7.887 -18.974 0 C -18.974 7.882 -12.564 14.241 -4.731 14.241 C 3.146 14.241 9.565 7.882 9.565 0 L 9.565 -9.514 C 9.565 -12.153 7.429 -14.297 4.781 -14.297 " fill="#231f20"/>
<path transform="matrix(2.7777777,0,0,-2.7777777,877.4766,758.7982)" d="M 0 0 L -4.731 0 L -4.731 -4.667 C -4.731 -7.254 -2.592 -9.398 0 -9.398 C 2.588 -9.398 4.671 -7.254 4.671 -4.667 C 4.671 -2.075 2.588 0 0 0 M 0 -18.964 C -7.884 -18.964 -14.301 -12.555 -14.301 -4.667 L -14.301 14.479 C -14.301 17.115 -12.168 19.261 -9.517 19.261 C -6.875 19.261 -4.731 17.115 -4.731 14.479 L -4.731 9.574 L 0 9.574 C 7.877 9.574 14.236 3.214 14.236 -4.667 C 14.236 -12.555 7.877 -18.964 0 -18.964 " fill="#231f20"/>
<path transform="matrix(2.7777777,0,0,-2.7777777,964.67837,758.7982)" d="M 0 0 C -2.592 0 -4.725 -2.075 -4.725 -4.667 C -4.725 -7.254 -2.592 -9.398 0 -9.398 C 2.586 -9.398 4.674 -7.254 4.674 -4.667 C 4.674 -2.075 2.586 0 0 0 M 0 -18.964 C -7.881 -18.964 -14.304 -12.555 -14.304 -4.667 C -14.304 3.214 -7.881 9.574 0 9.574 C 7.877 9.574 14.24 3.214 14.24 -4.667 C 14.24 -12.555 7.877 -18.964 0 -18.964 " fill="#231f20"/>
<path transform="matrix(2.7777777,0,0,-2.7777777,1051.8853,758.7982)" d="M 0 0 C -2.593 0 -4.732 -2.075 -4.732 -4.667 C -4.732 -7.254 -2.593 -9.398 0 -9.398 C 2.583 -9.398 4.669 -7.254 4.669 -4.667 C 4.669 -2.075 2.583 0 0 0 M 0 -18.964 C -7.886 -18.964 -14.307 -12.555 -14.307 -4.667 C -14.307 3.214 -7.886 9.574 0 9.574 C 7.879 9.574 14.242 3.214 14.242 -4.667 C 14.242 -12.555 7.879 -18.964 0 -18.964 " fill="#231f20"/>
<path transform="matrix(2.7777777,0,0,-2.7777777,0,2362.2054)" d="M 566.929 0 L 0 0 L 0 425.197 L 566.929 425.197 Z " fill="#231f20"/>
<path transform="matrix(2.7777777,0,0,-2.7777777,943.73916,1642.9887)" d="M 0 0 C -7.648 0 -13.82 -6.161 -13.82 -13.819 L -13.82 -27.812 L .008 -27.804 C 7.661 -27.804 13.992 -21.485 13.999 -13.819 C 13.992 -6.167 7.661 0 0 0 " fill="#ffffff"/>
<path transform="matrix(2.7777777,0,0,-2.7777777,592.1578,1681.8667)" d="M 0 0 C 0 -7.653 6.335 -13.821 13.992 -13.821 C 21.648 -13.821 27.812 -7.657 27.812 0 L 27.812 13.991 L 13.992 13.985 C 6.335 13.985 0 7.667 0 0 " fill="#ffffff"/>
<path transform="matrix(2.7777777,0,0,-2.7777777,943.7608,1798.8943)" d="M 0 0 L -56.621 0 C -64.446 .003 -70.778 6.328 -70.786 14.157 C -70.778 21.986 -64.446 28.309 -56.627 28.314 L -42.134 28.309 L -42.134 42.307 C -42.134 65.62 -23.315 84.434 0 84.438 C 23.316 84.443 42.308 65.62 42.308 42.299 C 42.301 18.99 23.321 0 0 0 M -112.585 0 C -135.909 -.005 -154.893 18.817 -154.893 42.13 C -154.886 65.445 -135.909 84.438 -112.593 84.438 L -55.965 84.438 C -48.14 84.434 -41.813 78.108 -41.808 70.278 C -41.813 62.453 -48.14 56.121 -55.958 56.115 L -70.452 56.121 L -70.452 42.13 C -70.446 18.817 -89.264 0 -112.585 0 M .399 98.914 L -112.983 98.914 C -144.292 98.914 -169.675 73.531 -169.675 42.22 C -169.675 10.908 -144.292 -14.475 -112.983 -14.475 L .399 -14.475 C 31.714 -14.475 57.097 10.908 57.097 42.22 C 57.097 73.531 31.714 98.914 .399 98.914 " fill="#ffffff"/>
<path transform="matrix(2.7777777,0,0,-2.7777777,528.63778,1939.9019)" d="M 0 0 L -4.728 0 L -4.728 -4.667 C -4.728 -7.255 -2.588 -9.398 0 -9.398 C 2.588 -9.398 4.674 -7.255 4.674 -4.667 C 4.674 -2.075 2.588 0 0 0 M 0 -18.964 C -7.88 -18.964 -14.301 -12.555 -14.301 -4.667 L -14.301 14.479 C -14.301 17.114 -12.164 19.261 -9.518 19.261 C -6.875 19.261 -4.728 17.114 -4.728 14.479 L -4.728 9.573 L 0 9.573 C 7.877 9.573 14.239 3.214 14.239 -4.667 C 14.239 -12.555 7.877 -18.964 0 -18.964 " fill="#ffffff"/>
<path transform="matrix(2.7777777,0,0,-2.7777777,628.8058,1952.8657)" d="M 0 0 C 0 2.592 -2.133 4.667 -4.725 4.667 C -7.311 4.667 -9.4 2.592 -9.4 0 C -9.4 -2.588 -7.311 -4.731 -4.725 -4.731 L 0 -4.731 Z M 4.783 -14.297 L -4.725 -14.297 C -12.555 -14.297 -18.967 -7.888 -18.967 0 C -18.967 7.881 -12.555 14.24 -4.725 14.24 C 3.155 14.24 9.565 7.881 9.565 0 L 9.565 -9.514 C 9.565 -12.153 7.439 -14.297 4.783 -14.297 " fill="#ffffff"/>
<path transform="matrix(2.7777777,0,0,-2.7777777,702.9594,2019.1771)" d="M 0 0 L -4.617 0 C -7.263 0 -9.399 2.147 -9.399 4.783 C -9.399 7.432 -7.263 9.575 -4.617 9.575 L 0 9.575 C 2.588 9.575 4.673 11.651 4.673 14.253 L 4.673 23.872 C 4.673 26.464 2.588 28.601 0 28.601 C -2.582 28.601 -4.726 26.464 -4.726 23.872 C -4.726 21.06 -2.307 20.388 -2.307 17.562 C -2.307 14.925 -4.443 12.778 -7.089 12.778 C -11.821 12.778 -14.291 19.986 -14.291 23.872 C -14.291 31.753 -7.881 38.174 0 38.174 C 7.887 38.174 14.307 31.753 14.307 23.872 L 14.307 14.253 C 14.307 6.362 7.887 0 0 0 " fill="#ffffff"/>
<path transform="matrix(2.7777777,0,0,-2.7777777,803.24697,1952.8657)" d="M 0 0 C 0 2.592 -2.146 4.667 -4.731 4.667 C -7.323 4.667 -9.408 2.592 -9.408 0 C -9.408 -2.588 -7.323 -4.731 -4.731 -4.731 L 0 -4.731 Z M 4.781 -14.297 L -4.731 -14.297 C -12.564 -14.297 -18.974 -7.888 -18.974 0 C -18.974 7.881 -12.564 14.24 -4.731 14.24 C 3.146 14.24 9.565 7.881 9.565 0 L 9.565 -9.514 C 9.565 -12.153 7.429 -14.297 4.781 -14.297 " fill="#ffffff"/>
<path transform="matrix(2.7777777,0,0,-2.7777777,877.4766,1939.9019)" d="M 0 0 L -4.731 0 L -4.731 -4.667 C -4.731 -7.255 -2.592 -9.398 0 -9.398 C 2.588 -9.398 4.671 -7.255 4.671 -4.667 C 4.671 -2.075 2.588 0 0 0 M 0 -18.964 C -7.884 -18.964 -14.301 -12.555 -14.301 -4.667 L -14.301 14.479 C -14.301 17.114 -12.168 19.261 -9.517 19.261 C -6.875 19.261 -4.731 17.114 -4.731 14.479 L -4.731 9.573 L 0 9.573 C 7.877 9.573 14.236 3.214 14.236 -4.667 C 14.236 -12.555 7.877 -18.964 0 -18.964 " fill="#ffffff"/>
<path transform="matrix(2.7777777,0,0,-2.7777777,964.67837,1939.9019)" d="M 0 0 C -2.592 0 -4.725 -2.075 -4.725 -4.667 C -4.725 -7.255 -2.592 -9.398 0 -9.398 C 2.586 -9.398 4.674 -7.255 4.674 -4.667 C 4.674 -2.075 2.586 0 0 0 M 0 -18.964 C -7.881 -18.964 -14.304 -12.555 -14.304 -4.667 C -14.304 3.214 -7.881 9.573 0 9.573 C 7.877 9.573 14.24 3.214 14.24 -4.667 C 14.24 -12.555 7.877 -18.964 0 -18.964 " fill="#ffffff"/>
<path transform="matrix(2.7777777,0,0,-2.7777777,1051.8853,1939.9019)" d="M 0 0 C -2.593 0 -4.732 -2.075 -4.732 -4.667 C -4.732 -7.255 -2.593 -9.398 0 -9.398 C 2.583 -9.398 4.669 -7.255 4.669 -4.667 C 4.669 -2.075 2.583 0 0 0 M 0 -18.964 C -7.886 -18.964 -14.307 -12.555 -14.307 -4.667 C -14.307 3.214 -7.886 9.573 0 9.573 C 7.879 9.573 14.242 3.214 14.242 -4.667 C 14.242 -12.555 7.879 -18.964 0 -18.964 " fill="#ffffff"/>
</g>
</g>
</g>
</svg>
