<?xml version="1.0" encoding="UTF-8" standalone="no"?>
<!DOCTYPE svg PUBLIC "-//W3C//DTD SVG 1.1//EN" "http://www.w3.org/Graphics/SVG/1.1/DTD/svg11.dtd">
<svg xmlns="http://www.w3.org/2000/svg" xmlns:xlink="http://www.w3.org/1999/xlink" version="1.1" width="1556.4639pt" height="493.69166pt" viewBox="0 0 1556.4639 493.69166">
<g enable-background="new">
<g id="Layer-1" data-name="Layer 1">
<path transform="matrix(2.7777777,0,0,-2.7777777,0,493.69166)" d="M 0 0 L 560.327 0 L 560.327 177.728 L 0 177.728 Z " fill="#231f20"/>
<clipPath id="cp0">
<path transform="matrix(2.7777777,0,0,-2.7777777,0,493.69166)" d="M 0 177.729 L 560.327 177.729 L 560.327 0 L 0 0 Z "/>
</clipPath>
<g clip-path="url(#cp0)">
<path transform="matrix(2.7777777,0,0,-2.7777777,242.88748,220.94057)" d="M 0 0 C 2.321 -2.733 3.459 -6.107 3.459 -10.313 C 3.459 -12.421 3.169 -14.313 2.588 -16.035 C 2.003 -17.747 1.129 -19.289 -.05 -20.668 C -2.338 -23.349 -5.199 -24.651 -8.78 -24.651 C -12.428 -24.651 -15.315 -23.349 -17.61 -20.668 C -19.965 -17.901 -21.113 -14.519 -21.113 -10.313 C -21.113 -6.107 -19.975 -2.741 -17.618 -.01 C -15.325 2.646 -12.437 3.931 -8.78 3.931 C -5.13 3.931 -2.262 2.646 0 0 M 14.578 4.136 C 13.48 6.269 12.162 8.188 10.654 9.866 C 9.138 11.544 7.417 13.001 5.517 14.208 C 1.679 16.642 -2.647 17.875 -7.349 17.875 C -10.611 17.875 -13.773 17.077 -16.744 15.527 C -18.193 14.766 -19.486 13.935 -20.634 13.044 L -20.634 28.967 C -20.634 31.074 -21.344 32.872 -22.749 34.31 C -24.163 35.767 -25.962 36.503 -28.084 36.503 C -30.219 36.503 -32.009 35.767 -33.419 34.31 C -34.817 32.872 -35.528 31.074 -35.528 28.967 L -35.528 -31.051 C -35.528 -33.233 -34.817 -35.058 -33.405 -36.462 C -31.991 -37.876 -30.2 -38.596 -28.084 -38.596 C -25.962 -38.596 -24.163 -37.851 -22.749 -36.402 C -22.005 -35.632 -21.448 -34.758 -21.096 -33.791 C -19.682 -34.834 -18.089 -35.76 -16.325 -36.574 C -13.404 -37.91 -10.261 -38.596 -6.963 -38.596 C -2.381 -38.596 1.867 -37.362 5.662 -34.929 C 9.447 -32.515 12.461 -29.105 14.63 -24.796 C 16.778 -20.532 17.875 -15.656 17.875 -10.313 C 17.875 -4.96 16.761 -.103 14.578 4.136 " fill="#ffffff"/>
<path transform="matrix(2.7777777,0,0,-2.7777777,407.50334,265.69416)" d="M 0 0 C -.583 -1.704 -1.464 -3.229 -2.638 -4.6 C -4.933 -7.256 -7.82 -8.54 -11.478 -8.54 C -15.118 -8.54 -17.996 -7.256 -20.249 -4.608 C -22.577 -1.876 -23.71 1.498 -23.71 5.704 C -23.71 9.909 -22.56 13.292 -20.206 16.059 C -17.91 18.739 -15.058 20.042 -11.478 20.042 C -7.828 20.042 -4.942 18.739 -2.647 16.059 C -.283 13.292 .865 9.909 .865 5.704 C .865 3.606 .574 1.705 0 0 M 13.147 31.853 C 11.733 33.265 9.943 33.986 7.828 33.986 C 5.705 33.986 3.905 33.241 2.493 31.793 C 1.816 31.099 1.3 30.319 .95 29.463 C -.531 30.508 -2.202 31.417 -4.026 32.177 C -6.904 33.379 -10.022 33.986 -13.285 33.986 C -17.868 33.986 -22.115 32.753 -25.917 30.319 C -29.703 27.905 -32.719 24.487 -34.888 20.187 C -37.036 15.921 -38.124 11.05 -38.124 5.704 C -38.124 .351 -37.019 -4.505 -34.833 -8.745 C -32.633 -13.019 -29.583 -16.403 -25.772 -18.817 C -21.944 -21.251 -17.61 -22.484 -12.908 -22.484 C -9.67 -22.484 -6.544 -21.765 -3.606 -20.351 C -1.809 -19.484 -.223 -18.484 1.139 -17.38 C 1.491 -18.106 1.953 -18.774 2.534 -19.382 C 3.922 -20.804 5.695 -21.524 7.828 -21.524 C 9.961 -21.524 11.752 -20.789 13.164 -19.332 C 14.568 -17.892 15.278 -16.094 15.278 -13.978 L 15.278 26.439 C 15.278 28.624 14.559 30.439 13.147 31.853 " fill="#ffffff"/>
<path transform="matrix(2.7777777,0,0,-2.7777777,577.92166,249.85222)" d="M 0 0 C 0 -4.187 -1.19 -7.554 -3.631 -10.277 C -6.021 -12.949 -9.019 -14.244 -12.813 -14.244 C -16.606 -14.244 -19.589 -12.949 -21.944 -10.285 C -24.358 -7.554 -25.532 -4.195 -25.532 0 C -25.532 4.197 -24.358 7.581 -21.944 10.338 C -19.589 13.028 -16.599 14.338 -12.813 14.338 C -9.028 14.338 -6.021 13.028 -3.631 10.33 C -1.19 7.571 0 4.19 0 0 M 12.292 26.15 L 12.283 26.15 C 10.878 27.562 9.087 28.282 6.964 28.282 C 4.84 28.282 3.041 27.537 1.628 26.089 C .822 25.259 .24 24.299 -.103 23.237 C -1.481 24.309 -3.059 25.268 -4.814 26.108 C -7.837 27.546 -11.142 28.282 -14.63 28.282 C -19.332 28.282 -23.672 27.049 -27.536 24.625 C -31.383 22.201 -34.448 18.802 -36.65 14.492 C -38.833 10.219 -39.945 5.346 -39.945 0 C -39.945 -5.352 -38.816 -10.218 -36.6 -14.456 C -34.362 -18.731 -31.244 -22.122 -27.332 -24.538 C -23.416 -26.953 -19.013 -28.187 -14.251 -28.187 C -10.714 -28.187 -7.366 -27.305 -4.283 -25.574 C -2.852 -24.77 -1.585 -23.912 -.48 -23.005 L -.48 -23.312 C -.48 -26.233 -1.414 -28.41 -3.331 -29.96 C -5.335 -31.579 -8.521 -32.4 -12.813 -32.4 C -14.944 -32.4 -17.396 -31.879 -20.084 -30.843 C -24.042 -29.317 -24.71 -29.096 -24.941 -29.026 C -25.677 -28.795 -26.448 -28.676 -27.246 -28.676 C -28.717 -28.676 -30.088 -29.172 -31.314 -30.141 C -32.521 -31.091 -33.369 -32.452 -33.857 -34.19 C -34.098 -34.929 -34.208 -35.595 -34.208 -36.221 C -34.208 -38.345 -33.224 -41.309 -28.529 -43.321 C -26.987 -44.014 -24.529 -44.683 -21.018 -45.352 C -17.532 -46.019 -14.852 -46.337 -12.813 -46.337 C -5.071 -46.337 1.438 -44.34 6.535 -40.393 C 11.759 -36.341 14.414 -30.079 14.414 -21.789 L 14.414 20.737 C 14.414 22.921 13.697 24.737 12.292 26.15 " fill="#ffffff"/>
<path transform="matrix(2.7777777,0,0,-2.7777777,741.9664,249.85222)" d="M 0 0 C 0 -4.204 -1.147 -7.57 -3.504 -10.304 C -5.797 -12.958 -8.685 -14.244 -12.333 -14.244 C -15.982 -14.244 -18.851 -12.958 -21.113 -10.312 C -23.443 -7.58 -24.572 -4.204 -24.572 0 C -24.572 4.207 -23.425 7.59 -21.07 10.356 C -18.775 13.037 -15.922 14.338 -12.333 14.338 C -8.694 14.338 -5.797 13.037 -3.512 10.356 C -1.147 7.59 0 4.207 0 0 M 12.292 26.15 L 12.283 26.15 C 10.878 27.562 9.088 28.282 6.962 28.282 C 4.84 28.282 3.041 27.537 1.626 26.089 C .95 25.396 .436 24.616 .086 23.761 C -1.397 24.804 -3.066 25.713 -4.89 26.475 C -7.769 27.675 -10.887 28.282 -14.151 28.282 C -18.732 28.282 -22.979 27.049 -26.784 24.616 C -30.56 22.201 -33.583 18.784 -35.75 14.483 C -37.9 10.219 -38.988 5.346 -38.988 0 C -38.988 -5.352 -37.883 -10.209 -35.69 -14.448 C -33.49 -18.723 -30.44 -22.105 -26.629 -24.521 C -22.808 -26.953 -18.475 -28.187 -13.772 -28.187 C -10.535 -28.187 -7.409 -27.467 -4.471 -26.053 C -2.673 -25.188 -1.088 -24.187 .274 -23.082 C .626 -23.811 1.096 -24.479 1.679 -25.086 C 3.059 -26.508 4.831 -27.227 6.962 -27.227 C 9.097 -27.227 10.895 -26.491 12.299 -25.034 C 13.703 -23.596 14.414 -21.798 14.414 -19.682 L 14.414 20.737 C 14.414 22.921 13.697 24.737 12.292 26.15 " fill="#ffffff"/>
<path transform="matrix(2.7777777,0,0,-2.7777777,915.2914,249.5889)" d="M 0 0 C 0 -2.106 -.291 -3.999 -.874 -5.721 C -1.457 -7.435 -2.331 -8.976 -3.512 -10.355 C -5.798 -13.037 -8.659 -14.337 -12.24 -14.337 C -15.888 -14.337 -18.775 -13.037 -21.062 -10.355 C -23.425 -7.588 -24.572 -4.204 -24.572 0 C -24.572 4.205 -23.425 7.571 -21.072 10.305 C -18.784 12.959 -15.888 14.244 -12.24 14.244 C -8.59 14.244 -5.722 12.959 -3.46 10.313 C -1.131 7.581 0 4.205 0 0 M 11.118 14.449 C 10.021 16.583 8.702 18.501 7.192 20.18 C 5.678 21.858 3.957 23.315 2.057 24.522 C -1.773 26.954 -6.107 28.187 -10.811 28.187 C -14.065 28.187 -17.226 27.392 -20.196 25.842 C -21.645 25.078 -22.946 24.249 -24.094 23.358 L -24.094 39.279 C -24.094 41.386 -24.804 43.186 -26.201 44.624 C -27.622 46.081 -29.413 46.816 -31.546 46.816 C -33.67 46.816 -35.469 46.081 -36.881 44.624 C -38.278 43.186 -38.99 41.386 -38.99 39.279 L -38.99 -20.736 C -38.99 -22.92 -38.27 -24.743 -36.864 -26.148 C -35.45 -27.562 -33.66 -28.281 -31.546 -28.281 C -29.413 -28.281 -27.622 -27.536 -26.201 -26.089 C -25.456 -25.317 -24.908 -24.445 -24.558 -23.477 C -23.144 -24.521 -21.549 -25.446 -19.785 -26.26 C -16.865 -27.596 -13.714 -28.281 -10.426 -28.281 C -5.843 -28.281 -1.593 -27.048 2.209 -24.615 C 5.987 -22.2 9.002 -18.791 11.178 -14.482 C 13.325 -10.218 14.414 -5.345 14.414 0 C 14.414 5.345 13.311 10.209 11.118 14.449 " fill="#f26324"/>
<path transform="matrix(2.7777777,0,0,-2.7777777,1072.6941,249.85222)" d="M 0 0 C 0 -2.098 -.29 -3.999 -.864 -5.704 C -1.447 -7.408 -2.328 -8.933 -3.502 -10.304 C -5.797 -12.958 -8.685 -14.244 -12.332 -14.244 C -15.982 -14.244 -18.851 -12.958 -21.112 -10.312 C -23.441 -7.58 -24.572 -4.204 -24.572 0 C -24.572 4.207 -23.425 7.59 -21.069 10.356 C -18.774 13.037 -15.923 14.338 -12.332 14.338 C -8.685 14.338 -5.797 13.037 -3.512 10.356 C -1.147 7.59 0 4.207 0 0 M 12.292 26.15 C 10.878 27.562 9.088 28.282 6.964 28.282 C 4.84 28.282 3.041 27.537 1.629 26.089 C .96 25.396 .445 24.616 .096 23.761 C -1.396 24.804 -3.066 25.713 -4.89 26.475 C -7.769 27.675 -10.878 28.282 -14.148 28.282 C -18.731 28.282 -22.979 27.049 -26.781 24.616 C -30.56 22.194 -33.583 18.784 -35.75 14.483 C -37.899 10.219 -38.987 5.346 -38.987 0 C -38.987 -5.352 -37.883 -10.209 -35.69 -14.448 C -33.49 -18.723 -30.44 -22.105 -26.629 -24.521 C -22.799 -26.953 -18.475 -28.187 -13.772 -28.187 C -10.535 -28.187 -7.409 -27.467 -4.469 -26.053 C -2.673 -25.188 -1.078 -24.187 .281 -23.082 C .626 -23.811 1.098 -24.479 1.679 -25.086 C 3.06 -26.508 4.84 -27.227 6.964 -27.227 C 9.098 -27.227 10.895 -26.491 12.307 -25.034 C 13.704 -23.596 14.414 -21.798 14.414 -19.682 L 14.414 20.737 C 14.414 22.921 13.697 24.737 12.292 26.15 " fill="#f26324"/>
<path transform="matrix(2.7777777,0,0,-2.7777777,1240.7116,249.85222)" d="M 0 0 C 0 -2.098 -.29 -3.982 -.897 -5.687 C -1.499 -7.39 -2.397 -8.916 -3.621 -10.277 C -6.014 -12.949 -9.019 -14.244 -12.813 -14.244 C -16.599 -14.244 -19.589 -12.949 -21.943 -10.285 C -24.358 -7.554 -25.531 -4.195 -25.531 0 C -25.531 4.197 -24.349 7.581 -21.935 10.338 C -19.579 13.028 -16.599 14.338 -12.813 14.338 C -9.019 14.338 -6.021 13.028 -3.631 10.33 C -1.19 7.571 0 4.19 0 0 M 12.292 26.15 C 10.878 27.562 9.088 28.282 6.972 28.282 C 4.84 28.282 3.041 27.537 1.629 26.089 C .821 25.259 .24 24.299 -.103 23.237 C -1.48 24.309 -3.05 25.268 -4.813 26.108 C -7.837 27.546 -11.135 28.282 -14.63 28.282 C -19.332 28.282 -23.665 27.049 -27.527 24.625 C -31.383 22.201 -34.448 18.802 -36.649 14.492 C -38.833 10.219 -39.945 5.346 -39.945 0 C -39.945 -5.352 -38.816 -10.218 -36.6 -14.456 C -34.353 -18.731 -31.238 -22.122 -27.331 -24.538 C -23.408 -26.953 -19.006 -28.187 -14.244 -28.187 C -10.714 -28.187 -7.366 -27.305 -4.283 -25.574 C -2.852 -24.77 -1.585 -23.912 -.48 -23.005 L -.48 -23.312 C -.48 -26.233 -1.414 -28.41 -3.331 -29.96 C -5.335 -31.579 -8.521 -32.4 -12.813 -32.4 C -14.944 -32.4 -17.396 -31.879 -20.084 -30.843 C -24.041 -29.317 -24.71 -29.096 -24.941 -29.026 C -25.668 -28.795 -26.448 -28.676 -27.245 -28.676 C -28.718 -28.676 -30.089 -29.172 -31.314 -30.141 C -32.513 -31.091 -33.369 -32.452 -33.848 -34.19 C -34.088 -34.929 -34.207 -35.595 -34.207 -36.221 C -34.207 -38.345 -33.215 -41.309 -28.521 -43.321 C -26.979 -44.014 -24.529 -44.683 -21.018 -45.352 C -17.532 -46.019 -14.844 -46.337 -12.813 -46.337 C -5.07 -46.337 1.438 -44.34 6.535 -40.393 C 11.769 -36.341 14.414 -30.079 14.414 -21.789 L 14.414 20.737 C 14.414 22.921 13.704 24.737 12.292 26.15 " fill="#f26324"/>
<path transform="matrix(2.7777777,0,0,-2.7777777,1414.0109,280.89863)" d="M 0 0 C 0 -3.502 -1.062 -6.611 -3.143 -9.242 C -5.164 -11.785 -7.795 -13.739 -10.945 -15.058 C -14.047 -16.351 -17.275 -17.011 -20.537 -17.011 C -24.932 -17.011 -29.094 -16.256 -32.905 -14.792 C -36.831 -13.275 -40.085 -10.799 -42.56 -7.416 C -43.348 -6.371 -43.75 -5.062 -43.75 -3.537 C -43.75 -1.995 -43.194 .231 -40.528 2.072 C -39.314 2.862 -38.071 3.238 -36.786 3.238 C -34.979 3.238 -33.291 2.458 -31.75 .926 C -29.977 -.907 -28.144 -2.269 -26.27 -3.135 C -24.435 -3.974 -22.158 -4.411 -19.484 -4.411 C -13.747 -4.187 -13.747 -1.593 -13.747 -.479 C -13.747 .745 -14.259 1.586 -15.408 2.236 C -16.966 3.117 -19.484 4.026 -22.894 4.934 C -26.655 5.971 -29.771 7.031 -32.172 8.076 C -34.731 9.198 -36.977 10.929 -38.826 13.199 C -40.762 15.571 -41.745 18.749 -41.745 22.646 C -41.745 26.082 -40.743 29.113 -38.757 31.673 C -36.836 34.148 -34.303 36.094 -31.21 37.446 C -25.111 40.119 -17.985 40.076 -11.149 37.531 C -7.623 36.213 -4.795 34.234 -2.757 31.632 C -1.695 30.329 -1.147 28.804 -1.147 27.135 C -1.147 25.156 -2.003 23.435 -3.612 22.158 C -4.813 21.216 -6.2 20.735 -7.733 20.735 C -9.6 20.735 -11.169 21.361 -12.383 22.577 L -12.497 22.706 C -13.471 23.896 -14.766 24.865 -16.334 25.575 C -17.918 26.294 -19.751 26.663 -21.78 26.663 C -27.332 26.663 -27.332 24.272 -27.332 23.125 C -27.332 22.185 -27.072 21.499 -26.516 20.968 C -25.808 20.282 -24.88 19.734 -23.751 19.34 C -22.413 18.878 -20.496 18.285 -18.07 17.602 C -14.568 16.633 -11.597 15.604 -9.232 14.562 C -6.689 13.421 -4.495 11.676 -2.74 9.345 C -.924 6.947 0 3.803 0 0 " fill="#f26324"/>
</g>
</g>
</g>
</svg>
